<svg t="1691488295306" class="icon" viewBox="0 0 1024 1024" version="1.1" xmlns="http://www.w3.org/2000/svg" p-id="5708" width="200" height="200"><path d="M512 85.333333a426.666667 426.666667 0 1 0 426.666667 426.666667A426.666667 426.666667 0 0 0 512 85.333333z m131.84 506.026667a20.48 20.48 0 0 1 0 29.866667l-22.613333 22.613333a20.48 20.48 0 0 1-29.866667 0L512 564.906667l-79.36 78.933333a20.48 20.48 0 0 1-29.866667 0l-22.613333-22.613333a20.48 20.48 0 0 1 0-29.866667L459.093333 512l-78.933333-79.36a20.48 20.48 0 0 1 0-29.866667l22.613333-22.613333a20.48 20.48 0 0 1 29.866667 0L512 459.093333l79.36-78.933333a20.48 20.48 0 0 1 29.866667 0l22.613333 22.613333a20.48 20.48 0 0 1 0 29.866667L564.906667 512z" p-id="5709"></path></svg>