<svg width="18" height="18" viewBox="0 0 18 18" fill="none" xmlns="http://www.w3.org/2000/svg">
<path fill-rule="evenodd" clip-rule="evenodd" d="M3 15V5.625H4.5V15H13.5V5.625H15V15C15 15.8284 14.3284 16.5 13.5 16.5H4.5C3.67157 16.5 3 15.8284 3 15Z" fill="#405EFF"/>
<path fill-rule="evenodd" clip-rule="evenodd" d="M6.75 12.9375V6.9375H8.25V12.9375H6.75Z" fill="#405EFF"/>
<path fill-rule="evenodd" clip-rule="evenodd" d="M9.75 12.9375V6.9375H11.25V12.9375H9.75Z" fill="#405EFF"/>
<path fill-rule="evenodd" clip-rule="evenodd" d="M16.5 4.5H1.5V3H16.5V4.5Z" fill="#405EFF"/>
<path d="M6.75 2.25C6.75 1.83579 7.08579 1.5 7.5 1.5H10.5C10.9142 1.5 11.25 1.83579 11.25 2.25V3.375C11.25 3.78921 10.9142 4.125 10.5 4.125H7.5C7.08579 4.125 6.75 3.78921 6.75 3.375V2.25Z" fill="#405EFF"/>
</svg>
